# xmcd
#
# Track frame offsets:
#	150
#	15573
#	31976
#	47583
#	63555
#	80403
#	97190
#	113227
#	131440
#	148858
#	162175
#	179397
#
# Disc length: 2604 seconds
#
# Revision: 1
# Processed by: cddbd v1.5.2PL0 Copyright (c) Steve Scherf et al.
# Submitted via: audiograbber 1.83.01
#
DISCID=a00a2a0c
DTITLE=Luke Combs - This One's for You
DYEAR=2017
DGENRE=Country
TTITLE0=Out There
TTITLE1=Memories Are Made Of
TTITLE2=Lonely One
TTITLE3=Beer Can
TTITLE4=Hurricane
TTITLE5=One Number Away
TTITLE6=Don't Tempt Me
TTITLE7=When It Rains It Pours
TTITLE8=This One's for You
TTITLE9=Be Careful What You Wish For
TTITLE10=I Got Away with You
TTITLE11=Honky Tonk Highway
EXTD=
EXTT0=
EXTT1=
EXTT2=
EXTT3=
EXTT4=
EXTT5=
EXTT6=
EXTT7=
EXTT8=
EXTT9=
EXTT10=
EXTT11=
PLAYORDER=
